<svg width="21" height="16" viewBox="0 0 21 16" fill="none" xmlns="http://www.w3.org/2000/svg">
<path d="M20 8.95044C20.5523 8.95044 21 8.50272 21 7.95044C21 7.39815 20.5523 6.95044 20 6.95044V8.95044ZM0.292728 7.24333C-0.0977955 7.63386 -0.0977955 8.26702 0.292728 8.65755L6.65669 15.0215C7.04721 15.412 7.68038 15.412 8.0709 15.0215C8.46143 14.631 8.46143 13.9978 8.0709 13.6073L2.41405 7.95044L8.0709 2.29359C8.46143 1.90306 8.46143 1.2699 8.0709 0.879372C7.68038 0.488847 7.04721 0.488847 6.65669 0.879372L0.292728 7.24333ZM20 6.95044L0.999836 6.95044V8.95044L20 8.95044V6.95044Z" fill="white"/>
</svg>
